<?xml version="1.0" encoding="UTF-8" standalone="no"?>
<!DOCTYPE svg PUBLIC "-//W3C//DTD SVG 1.1//EN" "http://www.w3.org/Graphics/SVG/1.1/DTD/svg11.dtd">
<!-- Generated by Microsoft Visio, SVG Export softbank_fota_summary.svg Page-1 -->
<svg xmlns="http://www.w3.org/2000/svg" xmlns:xlink="http://www.w3.org/1999/xlink" xmlns:ev="http://www.w3.org/2001/xml-events"
		width="7.461in" height="4.03885in" viewBox="0 0 537.192 290.797" xml:space="preserve" color-interpolation-filters="sRGB"
		class="st16">
	<style type="text/css">
	<![CDATA[
		.st1 {fill:#6ad1e3;stroke:#feffff;stroke-width:1}
		.st2 {fill:#feffff;font-family:Arial;font-size:1.00001em}
		.st3 {fill:#0077c8;stroke:#feffff;stroke-width:1}
		.st4 {fill:#feffff;font-family:Arial;font-size:1.00001em;font-weight:bold}
		.st5 {fill:#002b8c;stroke:#a9adcd;stroke-width:0.5}
		.st6 {fill:#feffff;font-family:Arial;font-size:1.33333em;font-weight:bold}
		.st7 {fill:#0077c8;stroke:none;stroke-width:6.375}
		.st8 {fill:#0077c8;font-family:Arial;font-size:0.916672em}
		.st9 {font-size:1em}
		.st10 {marker-end:url(#mrkr4-29);marker-start:url(#mrkr4-27);stroke:#00a9ce;stroke-linecap:butt;stroke-width:1}
		.st11 {fill:#00a9ce;fill-opacity:1;stroke:#00a9ce;stroke-opacity:1;stroke-width:0.28409090909091}
		.st12 {marker-end:url(#mrkr5-35);stroke:#008bab;stroke-linecap:butt;stroke-width:1}
		.st13 {fill:#008bab;fill-opacity:1;stroke:#008bab;stroke-opacity:1;stroke-width:0.28409090909091}
		.st14 {fill:none;stroke:none;stroke-width:1}
		.st15 {fill:#00a9ce;font-family:Arial;font-size:0.916672em}
		.st16 {fill:none;fill-rule:evenodd;font-size:12px;overflow:visible;stroke-linecap:square;stroke-miterlimit:3}
	]]>
	</style>

	<defs id="Markers">
		<g id="lend4">
			<path d="M 2 1 L 0 0 L 2 -1 L 2 1 " style="stroke:none"/>
		</g>
		<marker id="mrkr4-27" class="st11" refX="6.68" orient="auto" markerUnits="strokeWidth" overflow="visible">
			<use xlink:href="#lend4" transform="scale(3.52) "/>
		</marker>
		<marker id="mrkr4-29" class="st11" refX="-6.68" orient="auto" markerUnits="strokeWidth" overflow="visible">
			<use xlink:href="#lend4" transform="scale(-3.52,-3.52) "/>
		</marker>
		<g id="lend5">
			<path d="M 2 1 L 0 0 L 1.98117 -0.993387 C 1.67173 -0.364515 1.67301 0.372641 1.98465 1.00043 " style="stroke:none"/>
		</g>
		<marker id="mrkr5-35" class="st13" refX="-6.16" orient="auto" markerUnits="strokeWidth" overflow="visible">
			<use xlink:href="#lend5" transform="scale(-3.52,-3.52) "/>
		</marker>
	</defs>
	<g>
		<title>Page-1</title>
		<g id="shape111-1" transform="translate(1,-1)">
			<title>Rectangle.111</title>
			<desc>User Application</desc>
			<rect x="0" y="224.069" width="311.811" height="66.7287" class="st1"/>
			<text x="112.22" y="261.03" class="st2">User Application</text>		</g>
		<g id="shape114-4" transform="translate(1,-126.507)">
			<title>Rectangle.114</title>
			<desc>SoftBank FOTA library</desc>
			<rect x="0" y="224.069" width="311.811" height="66.7287" class="st3"/>
			<text x="92.23" y="261.03" class="st4">SoftBank FOTA library</text>		</g>
		<g id="shape116-7" transform="translate(1,-95.4331)">
			<title>Rectangle.116</title>
			<desc>API (sb_fota.c/h)</desc>
			<rect x="0" y="261.679" width="311.811" height="29.118" class="st3"/>
			<text x="111.22" y="279.84" class="st2">API (sb_fota.c/h)</text>		</g>
		<g id="shape1002-10" transform="translate(335.488,-213.598)">
			<title>Cloud.1002</title>
			<desc>nRF Cloud</desc>
			<path d="M70.55 224.66 A30.0612 19.7127 0 0 1 123.58 224.4 A22.0643 14.4687 0 0 1 161.53 229.19 A22.1902 14.5513 0 0
						 1 187.73 236.52 A16.7391 10.9768 0 0 1 178.83 249.83 A18.9036 12.3961 0 0 1 164.33 272.72 A34.0405 22.3222
						 0 0 1 116.94 284.23 A42.8722 28.1136 0 0 1 57.45 281.43 A23.5934 15.4714 0 0 1 15.95 268.96 A17.0486 11.1797
						 0 0 1 16.03 246.65 A14.5872 9.56563 0 1 1 27.8 229.15 A22.868 14.9958 0 0 1 70.55 224.66 Z" class="st5"/>
			<text x="54.53" y="257.25" class="st6">nRF Cloud</text>		</g>
		<g id="group1003-13" transform="translate(444.6,-159.871)">
			<title>Repeat.1003</title>
			<desc>Check for FOTA updates every two weeks</desc>
			<g id="shape1004-14" transform="translate(0,-15.5404)">
				<title>Sheet.1004</title>
				<path d="M10.84 290.8 L0 279.91 L6.1 279.91 C8.47 270.95 16.6 264.37 26.26 264.37 C34.56 264.37 41.79 269.25 45.12
							 276.39 L34.11 276.39 C32.02 274.52 29.25 273.39 26.26 273.39 C21.63 273.39 17.62 276.05 15.64 279.91
							 L21.69 279.91 L10.84 290.8 Z" class="st7"/>
			</g>
			<g id="shape1005-16" transform="translate(7.34142,0)">
				<title>Sheet.1005</title>
				<path d="M45.12 275.26 L39.08 275.26 C36.71 284.22 28.58 290.8 18.92 290.8 C10.56 290.8 3.39 285.92 0 278.77 L11.07
							 278.77 C13.16 280.65 15.93 281.78 18.92 281.78 C23.55 281.78 27.56 279.11 29.54 275.26 L23.44 275.26
							 L34.28 264.37 L45.12 275.26 Z" class="st7"/>
			</g>
			<g id="shape1003-18">
				<text x="-34.6" y="304.7" class="st8">Check for FOTA updates<tspan x="-14.42" dy="1.2em" class="st9">every two weeks</tspan></text>			</g>
		</g>
		<g id="shape1006-21" transform="translate(430.449,-213.598)">
			<title>Dynamic connector.1006</title>
			<path d="M-0.08 297.48 L-0.08 297.84 C-0.5 310.08 -3.02 324.17 -18.17 332.5 C-38.37 343.61 -81.03 344.45 -110.6 344.52
						 L-110.96 344.52" class="st10"/>
		</g>
		<g id="shape1007-30" transform="translate(-254.364,223.069) rotate(-90)">
			<title>Sheet.1007</title>
			<path d="M0 290.8 L21.54 290.8" class="st12"/>
		</g>
		<g id="shape1008-36" transform="translate(528.028,195.821) rotate(90)">
			<title>Sheet.1008</title>
			<path d="M0 290.8 L21.54 290.8" class="st12"/>
		</g>
		<g id="shape1009-41" transform="translate(33.6899,-71.3864)">
			<title>Sheet.1009</title>
			<desc>sb_fota_init()</desc>
			<rect x="0" y="276.624" width="87.874" height="14.1732" class="st14"/>
			<text x="12.14" y="287.01" class="st15">sb_fota_init()</text>		</g>
		<g id="shape1010-44" transform="translate(241.346,-71.3864)">
			<title>Sheet.1010</title>
			<desc>events</desc>
			<rect x="0" y="276.624" width="65.796" height="14.1732" class="st14"/>
			<text x="16.69" y="287.01" class="st15">events</text>		</g>
	</g>
</svg>
